HIERARCHY
ROOT root
{
	OFFSET 0.000000 0.000000 0.000000
	CHANNELS 6 Xposition Yposition Zposition Zrotation Yrotation Xrotation
	JOINT lhip
	{
		OFFSET 0.058581 -0.082280 -0.017664
		CHANNELS 3 Zrotation Yrotation Xrotation
		JOINT lknee
		{
			OFFSET 0.043451 -0.386469 0.008037
			CHANNELS 3 Zrotation Yrotation Xrotation
			JOINT lankle
			{
				OFFSET -0.014790 -0.426874 -0.037428
				CHANNELS 3 Zrotation Yrotation Xrotation
				JOINT ltoe
				{
					OFFSET 0.041054 -0.060286 0.122042
					CHANNELS 3 Zrotation Yrotation Xrotation
					End Site
					{
						OFFSET 0.000000 0.000000 0.000000
					}
				}
			}
		}
	}
	JOINT rhip
	{
		OFFSET -0.060310 -0.090513 -0.013543
		CHANNELS 3 Zrotation Yrotation Xrotation
		JOINT rknee
		{
			OFFSET -0.043257 -0.383688 -0.004843
			CHANNELS 3 Zrotation Yrotation Xrotation
			JOINT rankle
			{
				OFFSET 0.019056 -0.420046 -0.034562
				CHANNELS 3 Zrotation Yrotation Xrotation
				JOINT rtoe
				{
					OFFSET -0.034840 -0.062106 0.130323
					CHANNELS 3 Zrotation Yrotation Xrotation
					End Site
					{
						OFFSET 0.000000 0.000000 0.000000
					}
				}
			}
		}
	}
	JOINT lowerback
	{
		OFFSET 0.004439 0.124404 -0.038385
		CHANNELS 3 Zrotation Yrotation Xrotation
		JOINT upperback
		{
			OFFSET 0.004488 0.137956 0.026820
			CHANNELS 3 Zrotation Yrotation Xrotation
			JOINT chest
			{
				OFFSET -0.002265 0.056032 0.002855
				CHANNELS 3 Zrotation Yrotation Xrotation
				JOINT lowerneck
				{
					OFFSET -0.013390 0.211636 -0.033468
					CHANNELS 3 Zrotation Yrotation Xrotation
					JOINT upperneck
					{
						OFFSET 0.010113 0.088937 0.050410
						CHANNELS 3 Zrotation Yrotation Xrotation
						End Site
						{
							OFFSET 0.000000 0.000000 0.000000
						}
					}
				}
				JOINT lclavicle
				{
					OFFSET 0.071702 0.114000 -0.018898
					CHANNELS 3 Zrotation Yrotation Xrotation
					JOINT lshoulder
					{
						OFFSET 0.122921 0.045205 -0.019046
						CHANNELS 3 Zrotation Yrotation Xrotation
						JOINT lelbow
						{
							OFFSET 0.255332 -0.015649 -0.022946
							CHANNELS 3 Zrotation Yrotation Xrotation
							JOINT lwrist
							{
								OFFSET 0.265709 0.012698 -0.007375
								CHANNELS 3 Zrotation Yrotation Xrotation
								End Site
								{
									OFFSET 0.000000 0.000000 0.000000
								}
							}
						}
					}
				}
				JOINT rclavicle
				{
					OFFSET -0.082954 0.112472 -0.023707
					CHANNELS 3 Zrotation Yrotation Xrotation
					JOINT rshoulder
					{
						OFFSET -0.113228 0.046853 -0.008472
						CHANNELS 3 Zrotation Yrotation Xrotation
						JOINT relbow
						{
							OFFSET -0.260127 -0.014369 -0.031269
							CHANNELS 3 Zrotation Yrotation Xrotation
							JOINT rwrist
							{
								OFFSET -0.269108 0.006794 -0.006027
								CHANNELS 3 Zrotation Yrotation Xrotation
								End Site
								{
									OFFSET 0.000000 0.000000 0.000000
								}
							}
						}
					}
				}
			}
		}
	}
}
MOTION
Frames: 16
Frame Time: 0.033333
0.368723 0.775992 0.973147 -10.600360 4.032947 90.082078 11.955370 -1.772275 1.580719 -1.497321 -6.429419 4.539855 11.886943 17.063507 -21.757815 0.000000 -0.000000 0.000000 -6.440620 -0.237522 -11.594535 3.205656 -2.422415 22.488569 14.916315 0.787775 -11.991670 0.000000 -0.000000 0.000000 -3.782083 3.513182 1.294623 7.370942 1.142464 4.119160 1.707862 -1.190964 0.479116 2.140691 3.239753 -0.299619 3.042021 0.789141 7.594501 -23.589370 10.523545 0.016577 -61.952959 -20.792617 10.462336 114.725560 -71.639964 -100.626064 19.668207 -24.592413 -9.359274 25.337829 -6.085998 -0.839729 58.654976 12.754274 3.134046 -129.620319 77.340582 -117.436595 -9.794677 14.466423 -4.220759 
0.370478 0.777218 0.972933 -10.877663 4.225517 89.368167 12.513309 -1.181894 2.878449 -2.024206 -6.700593 3.164831 -1.506881 13.333569 -19.365288 0.000000 -0.000000 0.000000 -6.814024 0.699813 -12.406788 1.995269 -2.612416 26.099359 13.718050 0.027659 -15.649576 0.000000 -0.000000 0.000000 -3.436910 1.769873 2.204451 6.553415 0.442213 4.072343 1.221723 0.218056 0.537518 3.125409 4.682726 1.182184 3.565746 -0.580516 7.534262 -22.742455 11.869275 0.712960 -61.774038 -20.235396 10.873839 114.122312 -71.491045 -100.341393 19.888051 -24.855223 -9.251380 27.354592 -4.843800 0.782589 57.985852 12.803580 3.689848 -124.449084 78.355961 -112.327099 -9.383638 15.957511 -2.866171 
0.372713 0.775932 0.974013 -10.300926 2.341773 86.942475 10.120149 -1.165233 6.045028 -1.674177 -7.453099 1.900009 -1.254736 13.014369 -19.448738 0.000000 -0.000000 0.000000 -9.838609 -1.251152 -10.064397 -0.525570 -3.770990 27.914616 11.840362 -3.151622 -17.788774 0.000000 -0.000000 0.000000 -4.568958 0.707186 4.886305 5.289179 -1.529182 5.934611 0.107246 1.785689 -1.742784 4.557016 4.710543 1.753791 3.166649 -1.546270 9.826797 -21.981141 13.793650 1.029930 -60.705556 -19.720731 11.824613 110.221260 -71.858316 -97.447721 21.162244 -24.793831 -9.196018 30.395177 -4.393153 2.030776 57.409188 12.901351 5.970189 -112.082458 78.424975 -99.849835 -9.370827 17.488065 -0.756895 
0.372379 0.773647 0.971528 -8.850590 1.386631 86.818518 9.505203 -1.251414 5.581763 -2.282537 -7.971265 2.529152 -0.563115 12.102594 -19.770011 0.000000 -0.000000 0.000000 -12.205857 -3.056014 -7.586648 -1.737009 -4.198399 24.516509 9.821278 -4.439499 -11.760515 0.000000 -0.000000 0.000000 -4.893341 1.161828 3.602209 5.673546 -2.266000 7.578859 -0.403479 1.484573 -2.935013 3.069138 1.961811 4.061891 2.276948 -2.426088 12.583433 -23.164980 14.983144 1.191468 -60.547175 -18.432180 13.209636 102.590678 -73.420135 -91.202629 23.755358 -22.649742 -11.540263 30.624946 -6.088664 2.816440 57.464172 11.041120 6.744714 -103.412674 79.736696 -91.653461 -12.120530 17.279291 -1.338602 
0.371136 0.772748 0.970293 -8.373665 1.075477 87.060719 9.396688 -1.411986 4.932879 -2.555681 -8.037992 3.091300 -0.425947 11.862571 -19.971868 0.000000 -0.000000 0.000000 -12.856830 -3.442415 -6.726985 -1.398036 -3.584236 22.581767 10.575755 -3.565548 -9.839353 0.000000 -0.000000 0.000000 -5.179039 1.693068 2.635361 5.849750 -2.450665 8.220657 -0.487580 1.435053 -3.220919 2.790262 1.080034 5.059298 2.186720 -2.803639 13.369274 -23.219485 15.182317 1.604363 -61.328019 -18.166231 13.844585 100.894611 -73.563954 -90.104342 24.449688 -21.840841 -12.700174 30.568167 -6.687714 2.847268 57.330137 9.880427 6.651233 -103.643253 79.971757 -92.421165 -12.542135 16.995075 -1.878872 
0.366869 0.771252 0.967310 -7.661419 0.409003 87.361075 9.175737 -1.575580 3.937884 -2.957690 -8.395355 4.073339 -0.458753 11.846677 -20.327461 0.000000 -0.000000 0.000000 -14.207996 -4.105473 -4.738524 -0.584608 -3.277548 19.054509 11.678218 -2.626326 -9.786940 0.000000 -0.000000 0.000000 -5.754649 2.849570 1.057587 5.900853 -2.409864 9.033818 -0.515508 1.124346 -3.134148 2.335451 -0.366602 6.653224 2.035363 -3.347548 14.587506 -23.445729 15.485817 2.351264 -62.679094 -17.697544 14.390987 99.664386 -73.731045 -90.148523 25.892304 -20.663359 -14.041349 30.323322 -7.337208 2.843685 57.327746 7.619462 6.202738 -107.042034 80.239234 -96.940613 -14.033565 16.694915 -2.891004 
0.361864 0.770815 0.965305 -7.405461 -0.085066 87.302999 9.089548 -1.570185 3.551152 -3.123423 -8.629672 4.762102 -0.780513 11.798744 -20.321011 0.000000 -0.000000 0.000000 -15.388662 -4.694575 -2.202866 0.696175 -3.992340 15.208410 12.428257 -1.753903 -9.351239 0.000000 -0.000000 0.000000 -5.663863 3.174162 0.624637 5.416629 -2.347728 8.969814 -0.988730 1.275761 -2.595440 2.381390 -1.088202 8.129039 1.848912 -3.624305 15.379795 -23.757912 16.502167 2.324263 -63.250634 -17.121958 14.409264 98.876215 -73.779640 -89.444615 27.056153 -20.462042 -13.995081 30.146614 -8.008615 2.808738 57.655742 6.684276 6.025093 -108.563993 81.042839 -98.932862 -14.614012 16.636028 -3.274679 
0.356327 0.771559 0.964821 -7.778686 -0.280699 87.061921 9.330979 -1.252883 3.694880 -3.124842 -8.599837 5.034706 -1.267406 11.744147 -20.167126 0.000000 -0.000000 0.000000 -15.607183 -5.349031 0.128079 1.677985 -4.738090 11.295023 11.310831 -1.768723 -9.448644 0.000000 -0.000000 0.000000 -5.147419 3.445464 0.581084 4.872004 -2.048583 9.080407 -1.436264 1.455026 -2.124819 2.479444 -1.314048 9.104559 1.462825 -3.573704 16.164083 -24.221053 17.632072 2.212126 -63.720686 -16.777337 14.161971 96.442786 -73.478064 -86.780294 27.343012 -20.661736 -12.753002 29.794892 -8.593869 3.004787 58.118318 6.848037 5.964722 -107.479050 81.869613 -97.484443 -14.103883 16.804080 -2.306963 
0.350997 0.773286 0.964428 -8.241586 -0.570338 87.404386 9.319658 -1.105985 3.099437 -2.972693 -8.269453 5.459467 -1.528584 11.852749 -20.043703 0.000000 -0.000000 0.000000 -15.676060 -5.939525 1.660065 2.519460 -5.354878 7.511920 10.547983 -1.766012 -9.193444 0.000000 -0.000000 0.000000 -4.952574 3.771498 -0.118896 4.431769 -2.022122 9.647037 -1.805735 1.699474 -2.127006 2.270366 -1.481466 10.176762 1.575373 -3.206703 16.556666 -24.433507 18.413040 2.634788 -64.251613 -16.444459 13.725272 94.675116 -72.835049 -85.393426 27.438892 -20.145431 -12.168610 29.378582 -8.809031 3.714556 58.424750 7.369373 5.653436 -106.117412 82.409459 -96.182176 -13.659362 16.908276 -1.518333 
0.345507 0.776596 0.963396 -8.602570 -0.837445 88.144364 9.454880 -1.106418 1.707982 -3.051453 -7.828393 6.380073 -1.667840 12.008563 -20.115989 0.000000 -0.000000 0.000000 -15.733954 -6.272001 1.891456 3.169781 -5.255447 5.288761 10.338439 -1.523895 -8.924626 0.000000 -0.000000 0.000000 -5.173725 4.157302 -0.770508 4.238434 -1.934107 9.856908 -1.891624 1.710750 -2.041468 2.119447 -1.606001 10.324565 1.680039 -2.938195 16.868613 -24.504272 18.740355 2.866586 -64.970306 -15.939392 13.487447 93.626439 -72.176651 -84.780978 28.345683 -19.289547 -12.358635 29.147093 -8.733590 3.936820 58.569148 7.733882 5.519116 -104.931037 82.621259 -95.411330 -14.339281 16.963739 -1.496250 
0.340505 0.780099 0.963082 -9.156564 -0.724361 88.245686 9.931773 -0.971855 1.203085 -3.027723 -7.490965 7.051394 -1.826221 12.054463 -20.101299 0.000000 -0.000000 0.000000 -15.325747 -6.186648 1.035757 3.195564 -4.783418 6.140341 10.481225 -1.065432 -9.260804 0.000000 -0.000000 0.000000 -4.912303 4.282191 -0.353406 4.081178 -1.583976 9.819948 -1.987836 1.803885 -1.809519 2.446181 -1.549712 9.720356 1.382762 -3.077715 17.150524 -24.872796 18.938067 2.260291 -65.408034 -15.387653 13.603387 91.867519 -71.570677 -83.157977 28.959514 -19.051429 -12.383211 29.428322 -8.453808 3.579342 58.299005 8.077243 5.755807 -101.925416 82.380149 -92.675225 -15.007215 16.976375 -1.664770 
0.336827 0.783193 0.963856 -9.363817 -0.352493 88.079307 10.390781 -0.911972 1.103197 -2.698176 -7.519340 7.341440 -2.068679 12.306666 -19.970357 0.000000 -0.000000 0.000000 -14.570088 -5.594886 0.431090 3.113014 -4.677429 7.175470 10.339997 -1.073703 -9.663059 0.000000 -0.000000 0.000000 -4.443901 4.112528 0.436406 4.081357 -1.316842 9.656608 -1.970095 1.807084 -1.534077 2.496558 -1.275266 9.600485 1.234884 -2.968361 16.611589 -25.072612 19.010628 1.992009 -66.114126 -15.088678 13.667474 90.345179 -71.231319 -81.361637 29.400725 -18.992435 -12.453511 29.436098 -8.223450 3.390029 58.237705 8.687816 5.760658 -97.180742 82.154579 -87.634042 -15.661282 17.111925 -1.373889 
0.333737 0.785546 0.964530 -9.148438 -0.243277 88.165545 10.574507 -0.948862 1.052080 -2.356824 -7.453231 6.861738 -2.102481 12.389850 -19.548308 0.000000 -0.000000 0.000000 -14.096098 -5.345482 0.077738 3.049736 -5.032290 7.554072 9.974607 -1.267798 -10.011041 0.000000 -0.000000 0.000000 -4.533928 3.902400 0.737808 4.149228 -1.370306 9.718746 -1.773611 1.669023 -1.453992 2.557592 -0.995952 9.408379 1.425424 -2.792922 15.915070 -25.081313 18.892716 2.109318 -66.793966 -14.833788 13.677157 90.808747 -70.932464 -81.769644 29.034138 -18.854514 -12.606174 29.291862 -8.004439 3.539374 58.468448 9.046159 5.696335 -95.785114 81.689400 -86.225698 -15.377518 17.087235 -1.668145 
0.331280 0.786709 0.964907 -8.598309 -0.177958 88.281085 10.784326 -0.813128 1.137377 -2.088169 -7.662042 6.047326 -2.197850 12.107725 -19.146449 0.000000 -0.000000 0.000000 -13.847386 -5.493583 -0.001227 3.139265 -5.211141 7.715243 9.818715 -1.307674 -10.276683 0.000000 -0.000000 0.000000 -4.839050 3.799916 0.737109 4.314904 -1.649700 9.899180 -1.506300 1.574544 -1.415028 2.597134 -0.555641 9.260650 1.704284 -2.700169 14.825093 -25.025627 18.575833 2.169379 -66.634022 -14.610665 13.760282 91.360037 -71.697425 -82.272177 29.640353 -18.958748 -12.654766 29.439186 -7.906861 3.412767 58.478329 8.828997 5.470722 -97.078973 81.378966 -87.689806 -16.194863 17.227103 -1.957710 
0.329739 0.787060 0.964718 -7.897744 -0.154853 88.437797 10.995898 -0.674900 1.041691 -1.983761 -7.890895 5.516077 -2.425647 11.579469 -18.858144 0.000000 -0.000000 0.000000 -13.823930 -5.707373 0.037928 3.326333 -5.558617 7.803092 9.693358 -1.279561 -10.530710 0.000000 -0.000000 0.000000 -4.912380 3.615066 0.763877 4.341856 -1.868415 9.795282 -1.421059 1.423586 -1.347172 2.640780 0.057447 8.934811 2.168414 -2.687983 13.675767 -25.004727 18.319689 1.973346 -66.364970 -14.603193 14.056915 91.083770 -72.255517 -81.230277 29.771375 -19.672912 -12.237497 29.537609 -8.119096 3.204314 58.800825 8.445169 5.306012 -97.916542 81.249256 -88.277984 -16.641649 17.636969 -1.939877 
0.328822 0.786908 0.964505 -7.498966 -0.134343 88.625766 11.196048 -0.706549 1.017522 -2.085894 -8.042710 5.073197 -2.590585 11.319532 -18.717627 0.000000 -0.000000 0.000000 -13.712755 -5.606968 0.135691 3.352497 -5.860886 7.536974 9.568837 -1.530373 -10.585882 0.000000 -0.000000 0.000000 -4.968393 3.518272 0.647419 4.354635 -1.879864 9.691853 -1.260788 1.348705 -1.080561 2.610605 0.754936 8.144819 2.153457 -2.534790 11.939597 -25.166478 17.965930 1.433715 -66.016940 -14.637147 14.270775 90.904342 -72.770006 -80.721121 29.312501 -20.196395 -11.872790 29.606878 -8.225149 2.731397 59.041942 7.801875 5.213113 -97.921682 81.062042 -88.000258 -16.573770 17.753863 -2.014353 
